<svg width="68" height="68" viewBox="16 0 30 68" fill="none" xmlns="http://www.w3.org/2000/svg">
    <path d="M4.95 51.3C3.33 51.3 2.1 50.82 1.26 49.86C0.419998 48.84 0 47.67 0 46.35C0 44.97 0.419998 43.8 1.26 42.84C2.1 41.82 3.33 41.31 4.95 41.31C3.45 41.31 2.31 40.83 1.53 39.87C0.749999 38.91 0.360001 37.83 0.360001 36.63C0.360001 35.37 0.749999 34.29 1.53 33.39C2.31 32.43 3.45 31.95 4.95 31.95C3.81 31.95 2.88 31.53 2.16 30.69C1.5 29.79 1.05 28.71 0.809998 27.45C0.629998 26.13 0.629998 24.84 0.809998 23.58C1.05 22.32 1.5 21.27 2.16 20.43C2.88 19.53 3.81 19.08 4.95 19.08C2.85 19.08 1.44 18.6 0.720001 17.64C1.07288e-06 16.68 1.07288e-06 15.72 0.720001 14.76C1.44 13.8 2.85 13.32 4.95 13.32C3.63 13.2 2.64 12.72 1.98 11.88C1.38 11.04 1.11 10.11 1.17 9.09C1.23 8.01 1.62 7.11 2.34 6.39C3.06 5.61 4.08 5.25 5.4 5.31C5.4 3.57 5.91 2.25 6.93 1.35C7.95 0.449999 9.12 0 10.44 0C11.76 0 12.93 0.449999 13.95 1.35C14.97 2.25 15.48 3.57 15.48 5.31C15.48 4.11 15.93 3.18 16.83 2.52C17.79 1.8 18.93 1.32 20.25 1.08C21.63 0.840001 22.98 0.840001 24.3 1.08C25.68 1.32 26.82 1.8 27.72 2.52C28.68 3.18 29.16 4.11 29.16 5.31C29.16 3.57 29.58 2.28 30.42 1.44C31.26 0.539998 32.22 0.0899982 33.3 0.0899982C34.44 0.0899982 35.4 0.539998 36.18 1.44C37.02 2.28 37.44 3.6 37.44 5.4C37.62 3.84 38.04 2.73 38.7 2.07C39.42 1.35 40.17 1.05 40.95 1.17C41.79 1.23 42.48 1.68 43.02 2.52C43.56 3.36 43.74 4.53 43.56 6.03C44.1 4.11 44.82 2.91 45.72 2.43C46.62 1.95 47.31 2.16 47.79 3.06C48.33 3.9 48.33 5.28 47.79 7.2C48.63 6.18 49.62 5.67 50.76 5.67C51.9 5.67 52.92 6.06 53.82 6.84C54.72 7.56 55.29 8.46 55.53 9.54C55.83 10.62 55.56 11.7 54.72 12.78C56.34 12.42 57.63 12.6 58.59 13.32C59.61 13.98 60.24 14.88 60.48 16.02C60.78 17.16 60.63 18.27 60.03 19.35C59.49 20.43 58.41 21.15 56.79 21.51C58.17 21.99 59.1 22.65 59.58 23.49C60.06 24.33 60.15 25.14 59.85 25.92C59.55 26.7 58.95 27.27 58.05 27.63C57.15 27.99 56.01 27.9 54.63 27.36C56.01 29.16 56.61 30.63 56.43 31.77C56.25 32.85 55.59 33.36 54.45 33.3C53.31 33.24 52.05 32.31 50.67 30.51C51.33 31.35 51.69 32.22 51.75 33.12C53.31 33.72 54.66 34.68 55.8 36C56.94 37.32 57.15 38.61 56.43 39.87C57.87 39.51 59.04 39.54 59.94 39.96C60.84 40.32 61.38 40.89 61.56 41.67C61.8 42.45 61.65 43.23 61.11 44.01C60.57 44.79 59.58 45.39 58.14 45.81C59.82 46.17 60.99 46.83 61.65 47.79C62.37 48.75 62.61 49.77 62.37 50.85C62.19 51.87 61.59 52.71 60.57 53.37C59.61 54.03 58.26 54.18 56.52 53.82C57.72 54.96 58.32 56.13 58.32 57.33C58.32 58.53 57.93 59.55 57.15 60.39C56.37 61.17 55.38 61.59 54.18 61.65C52.98 61.65 51.78 61.08 50.58 59.94C51.36 61.8 51.6 63.18 51.3 64.08C51.06 64.92 50.52 65.16 49.68 64.8C48.84 64.38 48.03 63.24 47.25 61.38C47.43 62.7 47.07 63.81 46.17 64.71C45.33 65.61 44.22 66.27 42.84 66.69C41.52 67.11 40.14 67.26 38.7 67.14C37.32 67.02 36.12 66.6 35.1 65.88C34.08 65.22 33.48 64.23 33.3 62.91C33.3 64.53 32.82 65.76 31.86 66.6C30.9 67.44 29.76 67.86 28.44 67.86C27.18 67.86 26.07 67.44 25.11 66.6C24.15 65.76 23.67 64.53 23.67 62.91C23.67 64.29 23.28 65.31 22.5 65.97C21.78 66.69 20.91 67.05 19.89 67.05C18.87 67.05 17.97 66.69 17.19 65.97C16.47 65.31 16.11 64.29 16.11 62.91C16.11 64.05 15.72 64.92 14.94 65.52C14.22 66.06 13.29 66.27 12.15 66.15C11.01 66.03 9.87 65.46 8.73 64.44C7.65 63.42 6.72 61.86 5.94 59.76C5.22 57.6 4.89 54.78 4.95 51.3ZM22.05 22.86C23.01 22.86 23.7 23.28 24.12 24.12C24.6 24.9 24.9 25.77 25.02 26.73C25.14 27.69 25.2 28.38 25.2 28.8C25.32 27.84 25.74 27.18 26.46 26.82C27.18 26.46 27.93 26.43 28.71 26.73C29.49 26.97 29.97 27.51 30.15 28.35C30.03 27.27 30.54 26.49 31.68 26.01C32.82 25.47 33.84 25.41 34.74 25.83C34.62 25.17 34.74 24.51 35.1 23.85C35.52 23.13 36.09 22.65 36.81 22.41C36.21 22.05 35.73 21.48 35.37 20.7C35.07 19.86 34.98 19.11 35.1 18.45C34.62 18.81 34.2 18.87 33.84 18.63C33.54 18.39 33.45 17.94 33.57 17.28C32.85 18.18 31.77 18.6 30.33 18.54C28.95 18.42 27.96 17.88 27.36 16.92C27.36 17.64 27.09 18.27 26.55 18.81C26.01 19.29 25.38 19.53 24.66 19.53C24.96 20.25 24.87 21 24.39 21.78C23.97 22.5 23.19 22.86 22.05 22.86ZM30.24 52.83C30.18 51.81 30.57 51.12 31.41 50.76C32.31 50.34 33.18 50.25 34.02 50.49C33.72 49.47 33.78 48.39 34.2 47.25C34.68 46.05 35.37 45.15 36.27 44.55C35.31 44.13 34.44 43.5 33.66 42.66C32.88 41.76 32.43 40.86 32.31 39.96C31.83 40.74 31.05 41.22 29.97 41.4C28.89 41.58 27.87 41.52 26.91 41.22C27.09 42.18 26.82 43.08 26.1 43.92C25.44 44.76 24.57 45.12 23.49 45C24.39 45.54 24.99 46.41 25.29 47.61C25.59 48.81 25.65 49.89 25.47 50.85C26.37 50.43 27.39 50.4 28.53 50.76C29.67 51.06 30.24 51.75 30.24 52.83Z" fill="white"/>
</svg>
